<?xml version="1.0" standalone="no"?>
<!DOCTYPE svg PUBLIC "-//W3C//DTD SVG 20010904//EN"
 "http://www.w3.org/TR/2001/REC-SVG-20010904/DTD/svg10.dtd">
<svg version="1.0" xmlns="http://www.w3.org/2000/svg"
 width="1024.000000pt" height="1024.000000pt" viewBox="0 0 1024.000000 1024.000000"
 preserveAspectRatio="xMidYMid meet">
<metadata>
Created by potrace 1.11, written by Peter Selinger 2001-2013
</metadata>
<g transform="translate(0.000000,1024.000000) scale(0.100000,-0.100000)"
fill="#000000" stroke="none">
<path d="M5032 9047 c-52 -16 -128 -90 -149 -145 -17 -43 -18 -87 -18 -547 0
-486 1 -501 21 -545 45 -97 127 -150 234 -150 107 0 189 53 234 150 20 44 21
59 21 545 0 460 -1 504 -18 547 -22 58 -98 129 -155 146 -47 14 -124 14 -170
-1z"/>
<path d="M3735 8911 c-107 -48 -168 -168 -144 -281 8 -37 67 -145 216 -393
112 -188 219 -357 236 -376 46 -48 110 -75 182 -74 70 0 117 18 169 63 70 62
103 172 76 256 -17 53 -418 720 -455 757 -45 46 -100 67 -175 67 -42 0 -79 -7
-105 -19z"/>
<path d="M6295 8911 c-22 -10 -54 -31 -70 -48 -37 -37 -438 -704 -455 -757
-27 -84 6 -194 76 -256 52 -45 99 -63 169 -63 72 -1 136 26 182 74 17 19 124
188 236 376 221 369 236 403 217 489 -29 129 -121 204 -250 204 -42 0 -79 -7
-105 -19z"/>
<path d="M3385 7634 c-86 -21 -193 -77 -258 -135 -54 -48 -157 -188 -157 -213
0 -9 -26 -12 -92 -13 -179 0 -308 -53 -434 -178 -125 -123 -184 -261 -184
-431 0 -52 57 -395 190 -1151 175 -992 189 -1079 175 -1100 -9 -13 -22 -23
-31 -23 -8 0 -66 22 -129 49 -266 116 -529 171 -817 171 -148 0 -232 -17 -324
-63 -246 -124 -357 -409 -265 -673 27 -75 74 -146 142 -212 44 -43 93 -73 254
-154 410 -207 675 -395 979 -696 159 -157 293 -314 418 -488 48 -66 105 -137
127 -157 l40 -36 -20 -58 c-32 -89 -35 -214 -10 -355 36 -198 80 -289 190
-391 104 -96 231 -147 367 -147 45 0 335 46 822 132 l753 132 752 -132 c487
-86 776 -132 821 -132 141 0 266 53 379 159 127 120 191 305 191 551 0 103 -4
135 -22 182 l-21 58 52 52 c29 29 85 100 126 157 283 398 676 761 1101 1016
58 34 191 106 295 158 204 103 261 146 331 252 146 220 102 534 -98 709 -110
96 -236 136 -436 136 -286 0 -553 -55 -817 -171 -63 -27 -121 -49 -129 -49 -9
0 -22 10 -31 23 -14 21 0 107 175 1100 134 759 190 1098 190 1151 0 103 -15
166 -62 266 -33 69 -56 100 -122 165 -127 125 -256 178 -433 178 -69 0 -93 3
-93 13 0 24 -101 163 -152 209 -182 164 -463 203 -681 94 -59 -30 -129 -80
-167 -121 -18 -19 -18 -19 -57 0 -78 40 -160 54 -283 50 -99 -4 -126 -9 -195
-36 -148 -59 -270 -174 -335 -317 -31 -69 -41 -108 -74 -293 -13 -73 -25 -134
-27 -136 -2 -3 -29 2 -59 10 -50 14 -163 14 -279 2 -24 -3 -25 0 -53 155 -42
236 -80 326 -184 433 -116 120 -238 174 -414 181 -123 5 -205 -9 -283 -49 -39
-19 -39 -19 -57 0 -69 74 -190 143 -292 167 -79 18 -214 18 -293 -1z m208
-515 c15 -11 31 -37 37 -57 6 -20 76 -410 156 -867 99 -566 152 -844 166 -872
25 -54 87 -107 146 -127 163 -56 332 64 332 235 0 32 -57 378 -126 770 -71
402 -123 723 -119 736 18 73 108 97 165 46 l30 -28 130 -745 c72 -410 138
-765 147 -789 35 -98 129 -161 239 -161 119 0 219 80 245 195 12 53 9 75 -44
378 -31 178 -57 335 -57 349 0 30 41 68 72 68 26 0 56 -17 67 -39 17 -30 553
-3081 554 -3146 0 -99 -51 -183 -137 -224 -48 -24 -1990 -372 -2086 -374 -42
-1 -69 5 -112 26 -51 25 -67 41 -134 135 -413 574 -915 1003 -1545 1319 -156
79 -174 91 -177 115 -4 37 21 42 172 35 208 -10 345 -43 571 -137 166 -69 238
-85 343 -77 230 18 426 174 495 392 43 136 41 155 -166 1320 -103 577 -187
1063 -187 1078 0 18 11 39 29 58 57 56 150 30 170 -49 5 -20 64 -347 131 -727
66 -379 128 -710 136 -734 68 -183 325 -219 440 -62 18 25 39 70 45 99 12 49
4 97 -141 923 -154 870 -154 870 -136 903 30 57 101 74 149 35z m3166 6 c65
-33 70 9 -99 -946 -145 -824 -153 -872 -141 -921 6 -29 27 -74 45 -99 115
-157 372 -121 440 62 8 24 70 355 136 734 67 380 126 707 131 727 20 79 113
105 170 49 18 -19 29 -40 29 -58 0 -15 -84 -501 -187 -1078 -161 -910 -186
-1064 -187 -1157 -1 -60 -4 -108 -7 -108 -4 0 -38 10 -75 22 -122 38 -211 25
-288 -42 -59 -53 -81 -102 -81 -190 0 -169 97 -245 379 -297 120 -23 362 -20
506 6 143 25 246 57 425 131 77 32 180 70 229 84 168 49 478 74 506 41 27 -33
6 -49 -175 -141 -622 -313 -1129 -745 -1533 -1309 -118 -163 -176 -188 -364
-155 -62 11 -117 20 -123 20 -5 0 -25 31 -43 69 -40 83 -121 175 -191 216 -41
24 -50 34 -46 50 21 82 37 209 32 270 -3 39 -123 738 -267 1555 l-262 1485 71
405 c70 399 72 405 101 433 57 52 147 27 165 -46 4 -13 -32 -239 -79 -509 -47
-267 -86 -505 -86 -529 0 -89 70 -188 158 -225 20 -8 65 -15 99 -15 98 0 182
52 228 142 8 15 64 307 125 648 60 342 114 629 120 640 25 49 86 64 139 36z
m-776 -4770 c16 -15 19 -26 37 -132 13 -73 4 -99 -37 -107 -92 -19 -2418 -426
-2432 -426 -29 0 -40 22 -57 114 -22 119 -17 130 73 146 37 6 583 103 1213
215 630 111 1155 203 1167 204 12 1 28 -6 36 -14z m665 -401 c118 -21 121 -26
98 -150 -17 -91 -28 -114 -55 -114 -17 0 -324 52 -329 56 -2 1 19 30 46 64 28
34 61 86 74 116 20 48 26 54 48 49 14 -2 67 -12 118 -21z"/>
</g>
</svg>
